<?xml version="1.0" standalone="no"?>
<!DOCTYPE svg PUBLIC "-//W3C//DTD SVG 20010904//EN"
 "http://www.w3.org/TR/2001/REC-SVG-20010904/DTD/svg10.dtd">
<svg version="1.0" xmlns="http://www.w3.org/2000/svg"
 width="239.000000pt" height="199.000000pt" viewBox="0 0 239.000000 199.000000"
 preserveAspectRatio="xMidYMid meet">

<g transform="translate(0.000000,199.000000) scale(0.100000,-0.100000)"
fill="#000000" stroke="none">
<path d="M1103 1955 c-79 -22 -131 -51 -188 -109 -182 -182 -153 -479 60 -626
114 -78 272 -91 395 -33 95 44 153 100 197 191 37 73 38 80 38 181 0 98 -2
111 -31 171 -85 180 -284 275 -471 225z m269 -42 c157 -74 251 -250 220 -413
-49 -267 -314 -407 -557 -296 -278 127 -302 521 -43 687 72 47 121 59 223 56
78 -2 99 -6 157 -34z"/>
<path d="M1140 1911 c0 -6 4 -13 10 -16 6 -3 7 1 4 9 -7 18 -14 21 -14 7z"/>
<path d="M1010 1861 c0 -6 4 -13 10 -16 6 -3 7 1 4 9 -7 18 -14 21 -14 7z"/>
<path d="M980 1846 c0 -3 9 -10 20 -16 11 -6 20 -8 20 -6 0 3 -9 10 -20 16
-11 6 -20 8 -20 6z"/>
<path d="M1059 1820 c-40 -21 -100 -84 -124 -129 -8 -17 -13 -31 -11 -31 3 0
12 13 21 30 22 43 84 104 130 128 22 12 36 21 30 21 -5 0 -26 -8 -46 -19z"/>
<path d="M1338 1815 c24 -14 53 -35 63 -47 12 -14 19 -17 17 -8 -5 16 -93 80
-112 80 -6 0 8 -11 32 -25z"/>
<path d="M1420 1825 c-19 -22 -8 -25 13 -3 9 10 13 18 8 18 -5 0 -14 -7 -21
-15z"/>
<path d="M1459 1783 c-13 -16 -12 -17 4 -4 9 7 17 15 17 17 0 8 -8 3 -21 -13z"/>
<path d="M917 1769 c7 -7 15 -10 18 -7 3 3 -2 9 -12 12 -14 6 -15 5 -6 -5z"/>
<path d="M1430 1745 c0 -5 10 -21 21 -35 13 -17 17 -18 10 -5 -17 33 -31 51
-31 40z"/>
<path d="M994 1630 c0 -63 1 -89 3 -57 2 31 2 83 0 115 -2 31 -3 5 -3 -58z"/>
<path d="M1516 1694 c-5 -14 -4 -15 9 -4 17 14 19 20 6 20 -5 0 -12 -7 -15
-16z"/>
<path d="M1070 1568 c0 -114 3 -138 20 -165 16 -27 65 -63 85 -63 3 0 5 59 5
130 l0 130 -25 0 c-18 0 -25 5 -25 20 0 15 7 20 25 20 21 0 25 5 25 30 0 30
-1 30 -55 30 l-55 0 0 -132z"/>
<path d="M1227 1693 c-4 -3 -7 -17 -7 -30 0 -19 5 -23 30 -23 23 0 30 -5 30
-19 0 -14 -8 -21 -27 -23 l-28 -3 -3 -127 c-3 -140 -2 -143 54 -109 52 32 64
72 64 215 l0 126 -53 0 c-30 0 -57 -3 -60 -7z"/>
<path d="M1470 1675 c0 -5 5 -17 10 -25 5 -8 10 -10 10 -5 0 6 -5 17 -10 25
-5 8 -10 11 -10 5z"/>
<path d="M1539 1623 c-13 -16 -12 -17 4 -4 16 13 21 21 13 21 -2 0 -10 -8 -17
-17z"/>
<path d="M1491 1594 c0 -11 3 -14 6 -6 3 7 2 16 -1 19 -3 4 -6 -2 -5 -13z"/>
<path d="M1491 1524 c0 -11 3 -14 6 -6 3 7 2 16 -1 19 -3 4 -6 -2 -5 -13z"/>
<path d="M1476 1465 c-9 -26 -7 -32 5 -12 6 10 9 21 6 23 -2 3 -7 -2 -11 -11z"/>
<path d="M926 1447 c3 -10 9 -15 12 -12 3 3 0 11 -7 18 -10 9 -11 8 -5 -6z"/>
<path d="M948 1405 c15 -28 86 -96 103 -98 8 -2 25 -10 39 -20 13 -9 34 -17
45 -17 13 0 6 7 -21 19 -37 17 -53 33 -92 87 -7 11 -4 2 7 -18 28 -53 11 -47
-45 15 -26 28 -42 43 -36 32z"/>
<path d="M1403 1354 c-29 -30 -44 -50 -34 -45 18 10 91 87 91 96 0 8 -2 6 -57
-51z"/>
<path d="M1386 1383 c-6 -14 -5 -15 5 -6 7 7 10 15 7 18 -3 3 -9 -2 -12 -12z"/>
<path d="M1344 1329 c-16 -17 -42 -37 -59 -45 -16 -7 -23 -13 -15 -13 27 1 46
13 79 52 40 45 36 49 -5 6z"/>
<path d="M1183 1263 c15 -2 37 -2 50 0 12 2 0 4 -28 4 -27 0 -38 -2 -22 -4z"/>
<path d="M1161 1214 c0 -11 3 -14 6 -6 3 7 2 16 -1 19 -3 4 -6 -2 -5 -13z"/>
<path d="M183 285 c2 -30 7 -41 21 -43 10 -2 22 0 27 5 6 6 1 9 -13 9 -19 -1
-24 6 -30 34 l-6 35 1 -40z"/>
<path d="M270 315 c1 -6 14 -26 30 -45 17 -19 30 -30 30 -25 -1 6 -14 26 -30
45 -17 19 -30 30 -30 25z"/>
<path d="M363 280 c0 -25 2 -35 4 -22 2 12 2 32 0 45 -2 12 -4 2 -4 -23z"/>
<path d="M390 313 c1 -11 39 -80 40 -72 0 11 -30 79 -35 79 -3 0 -5 -3 -5 -7z"/>
<path d="M540 280 c0 -22 3 -40 8 -40 4 0 6 18 4 40 -2 22 -6 40 -8 40 -2 0
-4 -18 -4 -40z"/>
<path d="M670 282 c0 -23 3 -42 8 -42 9 0 8 68 -2 77 -3 3 -6 -12 -6 -35z"/>
<path d="M713 280 c0 -25 2 -35 4 -22 2 12 2 32 0 45 -2 12 -4 2 -4 -23z"/>
<path d="M880 280 c0 -22 3 -40 8 -40 4 0 6 18 4 40 -2 22 -6 40 -8 40 -2 0
-4 -18 -4 -40z"/>
<path d="M1264 304 c3 -9 6 -25 6 -37 1 -20 2 -20 11 -5 7 12 6 24 -1 38 -13
24 -25 27 -16 4z"/>
<path d="M1300 280 c0 -22 3 -40 8 -40 4 0 6 18 4 40 -2 22 -6 40 -8 40 -2 0
-4 -18 -4 -40z"/>
<path d="M1373 280 c0 -25 2 -35 4 -22 2 12 2 32 0 45 -2 12 -4 2 -4 -23z"/>
<path d="M1593 280 c0 -25 2 -35 4 -22 2 12 2 32 0 45 -2 12 -4 2 -4 -23z"/>
<path d="M1679 318 c-5 -18 -2 -78 4 -78 4 0 7 18 7 40 0 22 -2 40 -5 40 -3 0
-5 -1 -6 -2z"/>
<path d="M1740 280 c0 -22 3 -40 8 -40 4 0 6 18 4 40 -2 22 -6 40 -8 40 -2 0
-4 -18 -4 -40z"/>
<path d="M1832 313 c24 -49 32 -63 39 -63 5 0 -1 16 -12 35 -12 19 -23 35 -26
35 -2 0 -3 -3 -1 -7z"/>
<path d="M1903 280 c0 -25 2 -35 4 -22 2 12 2 32 0 45 -2 12 -4 2 -4 -23z"/>
<path d="M2023 285 c2 -30 7 -41 21 -43 10 -2 22 0 27 5 6 6 1 9 -13 9 -19 -1
-24 6 -30 34 l-6 35 1 -40z"/>
<path d="M2113 280 c0 -25 2 -35 4 -22 2 12 2 32 0 45 -2 12 -4 2 -4 -23z"/>
<path d="M2179 318 c-5 -18 -2 -78 4 -78 4 0 7 18 7 40 0 22 -2 40 -5 40 -3 0
-5 -1 -6 -2z"/>
<path d="M473 275 c-1 -19 3 -35 8 -35 5 0 9 16 9 35 0 19 -4 35 -8 35 -4 0
-8 -16 -9 -35z"/>
<path d="M610 296 c0 -8 9 -18 20 -21 11 -4 17 -11 14 -17 -4 -7 -2 -8 4 -4
16 9 16 9 -13 34 -18 16 -25 18 -25 8z"/>
<path d="M763 280 c0 -16 4 -27 9 -24 4 3 8 14 8 24 0 10 -4 21 -8 24 -5 3 -9
-8 -9 -24z"/>
<path d="M825 293 c4 -10 10 -26 12 -35 3 -10 9 -18 14 -18 12 0 11 6 -6 40
-17 32 -32 41 -20 13z"/>
<path d="M933 280 c0 -16 4 -27 9 -24 4 3 8 14 8 24 0 10 -4 21 -8 24 -5 3 -9
-8 -9 -24z"/>
<path d="M986 295 c-7 -20 2 -42 21 -49 13 -5 14 -4 3 9 -7 8 -10 24 -7 35 6
23 -8 27 -17 5z"/>
<path d="M1108 275 c9 -19 20 -35 24 -35 4 0 0 16 -9 35 -9 19 -20 35 -24 35
-3 0 1 -16 9 -35z"/>
<path d="M1160 275 c0 -19 5 -35 10 -35 6 0 10 16 10 35 0 19 -4 35 -10 35 -5
0 -10 -16 -10 -35z"/>
<path d="M1407 303 c-13 -13 -7 -51 9 -57 14 -5 15 -4 4 9 -7 8 -10 24 -7 35
5 21 4 24 -6 13z"/>
<path d="M1515 295 c4 -11 10 -28 12 -37 3 -10 9 -18 14 -18 5 0 3 12 -3 28
-14 33 -35 57 -23 27z"/>
<path d="M1643 278 c0 -30 1 -30 10 -10 7 15 7 26 0 33 -6 6 -10 -1 -10 -23z"/>
<path d="M1960 303 c0 -5 10 -21 21 -38 12 -17 18 -21 14 -10 -4 11 -10 28
-12 38 -5 17 -23 24 -23 10z"/>
<path d="M1207 293 c-9 -15 9 -53 25 -53 7 0 7 4 0 13 -5 6 -12 21 -14 32 -2
14 -6 16 -11 8z"/>
<path d="M575 260 c10 -11 20 -20 22 -20 2 0 -2 9 -9 20 -7 11 -17 20 -22 20
-5 0 -1 -9 9 -20z"/>
<path d="M800 269 c0 -5 5 -7 10 -4 6 3 10 8 10 11 0 2 -4 4 -10 4 -5 0 -10
-5 -10 -11z"/>
<path d="M1076 265 c-9 -26 -7 -32 5 -12 6 10 9 21 6 23 -2 3 -7 -2 -11 -11z"/>
</g>
</svg>
